<svg xmlns="http://www.w3.org/2000/svg" xmlns:xlink="http://www.w3.org/1999/xlink" width="1390" zoomAndPan="magnify" viewBox="0 0 1042.5 242.249991" height="323" preserveAspectRatio="xMidYMid meet" version="1.0"><defs><g/></defs><g fill="#0cb4ce" fill-opacity="1"><g transform="translate(69.60922, 179.790902)"><g><path d="M 161.296875 -120.0625 C 178.210938 -120.0625 191.203125 -114.585938 200.265625 -103.640625 C 209.328125 -92.691406 213.859375 -77.550781 213.859375 -58.21875 L 213.859375 -12 C 213.859375 -7.625 212.914062 -4.53125 211.03125 -2.71875 C 209.144531 -0.90625 206.085938 0 201.859375 0 L 189.625 0 C 185.394531 0 182.332031 -0.90625 180.4375 -2.71875 C 178.550781 -4.53125 177.609375 -7.625 177.609375 -12 L 177.609375 -55.734375 C 177.609375 -75.671875 170.359375 -85.640625 155.859375 -85.640625 C 148.304688 -85.640625 142.488281 -82.957031 138.40625 -77.59375 C 134.332031 -72.226562 132.296875 -64.789062 132.296875 -55.28125 L 132.296875 -12 C 132.296875 -7.625 131.351562 -4.53125 129.46875 -2.71875 C 127.582031 -0.90625 124.523438 0 120.296875 0 L 108.0625 0 C 103.832031 0 100.773438 -0.90625 98.890625 -2.71875 C 97.003906 -4.53125 96.0625 -7.625 96.0625 -12 L 96.0625 -55.734375 C 96.0625 -75.671875 88.8125 -85.640625 74.3125 -85.640625 C 66.757812 -85.640625 60.941406 -82.957031 56.859375 -77.59375 C 52.785156 -72.226562 50.75 -64.789062 50.75 -55.28125 L 50.75 -12 C 50.75 -7.769531 49.84375 -4.710938 48.03125 -2.828125 C 46.21875 -0.941406 43.117188 0 38.734375 0 L 26.5 0 C 22.125 0 19.03125 -0.941406 17.21875 -2.828125 C 15.40625 -4.710938 14.5 -7.769531 14.5 -12 L 14.5 -109.65625 C 14.5 -115.082031 16.835938 -117.796875 21.515625 -117.796875 C 24.691406 -117.796875 28.242188 -116.472656 32.171875 -113.828125 C 36.097656 -111.191406 39.570312 -107.457031 42.59375 -102.625 C 46.96875 -108.21875 52.515625 -112.519531 59.234375 -115.53125 C 65.960938 -118.550781 72.800781 -120.0625 79.75 -120.0625 C 98.175781 -120.0625 111.765625 -114.097656 120.515625 -102.171875 C 125.203125 -107.765625 131.242188 -112.144531 138.640625 -115.3125 C 146.046875 -118.476562 153.597656 -120.0625 161.296875 -120.0625 Z M 161.296875 -120.0625 "/></g></g></g><g fill="#0cb4ce" fill-opacity="1"><g transform="translate(294.790701, 179.790902)"><g><path d="M 32.625 -133.890625 C 26.882812 -133.890625 22.007812 -135.8125 18 -139.65625 C 14 -143.507812 12 -148.15625 12 -153.59375 C 12 -159.1875 14 -163.867188 18 -167.640625 C 22.007812 -171.421875 26.882812 -173.3125 32.625 -173.3125 C 38.207031 -173.3125 43.035156 -171.382812 47.109375 -167.53125 C 51.191406 -163.675781 53.234375 -159.03125 53.234375 -153.59375 C 53.234375 -148.15625 51.191406 -143.507812 47.109375 -139.65625 C 43.035156 -135.8125 38.207031 -133.890625 32.625 -133.890625 Z M 26.5 0 C 22.269531 0 19.210938 -0.90625 17.328125 -2.71875 C 15.441406 -4.53125 14.5 -7.625 14.5 -12 L 14.5 -103.53125 C 14.5 -107.914062 15.441406 -111.007812 17.328125 -112.8125 C 19.210938 -114.625 22.269531 -115.53125 26.5 -115.53125 L 38.734375 -115.53125 C 42.960938 -115.53125 46.019531 -114.625 47.90625 -112.8125 C 49.800781 -111.007812 50.75 -107.914062 50.75 -103.53125 L 50.75 -12 C 50.75 -7.625 49.800781 -4.53125 47.90625 -2.71875 C 46.019531 -0.90625 42.960938 0 38.734375 0 Z M 26.5 0 "/></g></g></g><g fill="#0cb4ce" fill-opacity="1"><g transform="translate(360.034466, 179.790902)"><g><path d="M 83.828125 -120.0625 C 101.492188 -120.0625 115.914062 -114.207031 127.09375 -102.5 C 138.269531 -90.800781 143.859375 -75.890625 143.859375 -57.765625 C 143.859375 -40.097656 138.082031 -25.296875 126.53125 -13.359375 C 114.976562 -1.429688 100.59375 4.53125 83.375 4.53125 C 70.832031 4.53125 59.957031 1.132812 50.75 -5.65625 L 50.75 48.484375 C 50.75 53.921875 48.484375 56.640625 43.953125 56.640625 C 36.546875 56.640625 29.785156 52.445312 23.671875 44.0625 C 17.554688 35.675781 14.5 24.765625 14.5 11.328125 L 14.5 -109.65625 C 14.5 -115.082031 16.835938 -117.796875 21.515625 -117.796875 C 24.691406 -117.796875 28.242188 -116.472656 32.171875 -113.828125 C 36.097656 -111.191406 39.570312 -107.609375 42.59375 -103.078125 C 46.664062 -107.910156 52.398438 -111.945312 59.796875 -115.1875 C 67.203125 -118.4375 75.210938 -120.0625 83.828125 -120.0625 Z M 78.84375 -28.09375 C 86.84375 -28.09375 93.5625 -30.8125 99 -36.25 C 104.4375 -41.6875 107.15625 -48.859375 107.15625 -57.765625 C 107.15625 -66.523438 104.4375 -73.660156 99 -79.171875 C 93.5625 -84.691406 86.835938 -87.453125 78.828125 -87.453125 C 70.828125 -87.453125 64.144531 -84.691406 58.78125 -79.171875 C 53.425781 -73.660156 50.75 -66.523438 50.75 -57.765625 C 50.75 -48.859375 53.46875 -41.6875 58.90625 -36.25 C 64.34375 -30.8125 70.988281 -28.09375 78.84375 -28.09375 Z M 78.84375 -28.09375 "/></g></g></g><g fill="#0cb4ce" fill-opacity="1"><g transform="translate(510.684031, 179.790902)"><g><path d="M 123.015625 -103.3125 C 132.222656 -92.582031 136.828125 -76.644531 136.828125 -55.5 L 136.828125 -12 C 136.828125 -7.625 135.882812 -4.53125 134 -2.71875 C 132.113281 -0.90625 129.054688 0 124.828125 0 L 112.59375 0 C 108.363281 0 105.304688 -0.90625 103.421875 -2.71875 C 101.535156 -4.53125 100.59375 -7.625 100.59375 -12 L 100.59375 -54.375 C 100.59375 -65.09375 98.703125 -72.867188 94.921875 -77.703125 C 90.847656 -82.992188 84.734375 -85.640625 76.578125 -85.640625 C 68.421875 -85.640625 62.078125 -82.992188 57.546875 -77.703125 C 53.015625 -72.421875 50.75 -64.71875 50.75 -54.59375 L 50.75 -12 C 50.75 -7.769531 49.84375 -4.710938 48.03125 -2.828125 C 46.21875 -0.941406 43.117188 0 38.734375 0 L 26.5 0 C 22.125 0 19.03125 -0.941406 17.21875 -2.828125 C 15.40625 -4.710938 14.5 -7.769531 14.5 -12 L 14.5 -126.859375 C 14.5 -140.304688 17.554688 -151.21875 23.671875 -159.59375 C 29.785156 -167.976562 36.546875 -172.171875 43.953125 -172.171875 C 48.484375 -172.171875 50.75 -169.453125 50.75 -164.015625 L 50.75 -108.0625 C 59.207031 -116.0625 70.382812 -120.0625 84.28125 -120.0625 C 100.289062 -120.0625 113.203125 -114.476562 123.015625 -103.3125 Z M 123.015625 -103.3125 "/></g></g></g><g fill="#0cb4ce" fill-opacity="1"><g transform="translate(658.841645, 179.790902)"><g><path d="M 32.625 -133.890625 C 26.882812 -133.890625 22.007812 -135.8125 18 -139.65625 C 14 -143.507812 12 -148.15625 12 -153.59375 C 12 -159.1875 14 -163.867188 18 -167.640625 C 22.007812 -171.421875 26.882812 -173.3125 32.625 -173.3125 C 38.207031 -173.3125 43.035156 -171.382812 47.109375 -167.53125 C 51.191406 -163.675781 53.234375 -159.03125 53.234375 -153.59375 C 53.234375 -148.15625 51.191406 -143.507812 47.109375 -139.65625 C 43.035156 -135.8125 38.207031 -133.890625 32.625 -133.890625 Z M 26.5 0 C 22.269531 0 19.210938 -0.90625 17.328125 -2.71875 C 15.441406 -4.53125 14.5 -7.625 14.5 -12 L 14.5 -103.53125 C 14.5 -107.914062 15.441406 -111.007812 17.328125 -112.8125 C 19.210938 -114.625 22.269531 -115.53125 26.5 -115.53125 L 38.734375 -115.53125 C 42.960938 -115.53125 46.019531 -114.625 47.90625 -112.8125 C 49.800781 -111.007812 50.75 -107.914062 50.75 -103.53125 L 50.75 -12 C 50.75 -7.625 49.800781 -4.53125 47.90625 -2.71875 C 46.019531 -0.90625 42.960938 0 38.734375 0 Z M 26.5 0 "/></g></g></g><g fill="#0cb4ce" fill-opacity="1"><g transform="translate(724.085386, 179.790902)"><g><path d="M 90.171875 -118.25 C 92.285156 -117.5 93.679688 -116.671875 94.359375 -115.765625 C 95.035156 -114.859375 95.375 -113.425781 95.375 -111.46875 L 95.375 -89.9375 C 95.375 -86.3125 93.863281 -84.5 90.84375 -84.5 C 89.789062 -84.5 87.90625 -84.6875 85.1875 -85.0625 C 82.46875 -85.445312 79.820312 -85.640625 77.25 -85.640625 C 68.644531 -85.640625 62.078125 -82.84375 57.546875 -77.25 C 53.015625 -71.664062 50.75 -63.507812 50.75 -52.78125 L 50.75 -12 C 50.75 -7.625 49.800781 -4.53125 47.90625 -2.71875 C 46.019531 -0.90625 42.960938 0 38.734375 0 L 26.5 0 C 22.125 0 19.03125 -0.941406 17.21875 -2.828125 C 15.40625 -4.710938 14.5 -7.769531 14.5 -12 L 14.5 -109.65625 C 14.5 -115.082031 16.835938 -117.796875 21.515625 -117.796875 C 24.992188 -117.796875 28.804688 -116.285156 32.953125 -113.265625 C 37.109375 -110.253906 40.695312 -106.179688 43.71875 -101.046875 C 51.125 -113.722656 62.453125 -120.0625 77.703125 -120.0625 C 82.992188 -120.0625 87.148438 -119.457031 90.171875 -118.25 Z M 90.171875 -118.25 "/></g></g></g><g fill="#0cb4ce" fill-opacity="1"><g transform="translate(821.72442, 179.790902)"><g><path d="M 129.125 -117.796875 C 133.8125 -117.796875 136.15625 -115.082031 136.15625 -109.65625 L 136.15625 -5.890625 C 136.15625 -0.453125 133.8125 2.265625 129.125 2.265625 C 125.957031 2.265625 122.410156 0.945312 118.484375 -1.6875 C 114.554688 -4.332031 111.082031 -7.921875 108.0625 -12.453125 C 103.988281 -7.617188 98.25 -3.578125 90.84375 -0.328125 C 83.445312 2.910156 75.441406 4.53125 66.828125 4.53125 C 49.160156 4.53125 34.738281 -1.316406 23.5625 -13.015625 C 12.382812 -24.722656 6.796875 -39.640625 6.796875 -57.765625 C 6.796875 -75.585938 12.421875 -90.425781 23.671875 -102.28125 C 34.921875 -114.132812 49.304688 -120.0625 66.828125 -120.0625 C 75.441406 -120.0625 83.445312 -118.4375 90.84375 -115.1875 C 98.25 -111.945312 103.988281 -107.910156 108.0625 -103.078125 C 111.082031 -107.609375 114.554688 -111.191406 118.484375 -113.828125 C 122.410156 -116.472656 125.957031 -117.796875 129.125 -117.796875 Z M 51.65625 -36.359375 C 57.09375 -30.847656 63.8125 -28.09375 71.8125 -28.09375 C 79.820312 -28.09375 86.503906 -30.847656 91.859375 -36.359375 C 97.222656 -41.867188 99.90625 -49.003906 99.90625 -57.765625 C 99.90625 -66.523438 97.222656 -73.660156 91.859375 -79.171875 C 86.503906 -84.691406 79.820312 -87.453125 71.8125 -87.453125 C 63.8125 -87.453125 57.09375 -84.691406 51.65625 -79.171875 C 46.21875 -73.660156 43.5 -66.523438 43.5 -57.765625 C 43.5 -49.003906 46.21875 -41.867188 51.65625 -36.359375 Z M 51.65625 -36.359375 "/></g></g></g></svg>